<svg width="320" height="320" viewBox="0 0 320 320" fill="none" xmlns="http://www.w3.org/2000/svg">
  <rect x="20" y="20" width="280" height="280" rx="58" fill="#FFFFFF" stroke="#1F1F1F" stroke-width="10"></rect>
  <circle cx="160" cy="160" r="94" fill="#C47A32" stroke="#1F1F1F" stroke-width="10"></circle>
  <path d="M78 150C87 92 145 78 180 90C214 101 248 124 242 166C236 211 192 238 145 232C99 227 70 197 78 150Z" fill="#FF7AA8" stroke="#1F1F1F" stroke-width="8"></path>
  <circle cx="160" cy="160" r="34" fill="#FFFFFF" stroke="#1F1F1F" stroke-width="9"></circle>
  <rect x="102" y="126" width="34" height="10" rx="5" transform="rotate(-25 102 126)" fill="#FFD84D"></rect>
  <rect x="196" y="119" width="34" height="10" rx="5" transform="rotate(25 196 119)" fill="#6EC6FF"></rect>
  <rect x="115" y="201" width="34" height="10" rx="5" transform="rotate(20 115 201)" fill="#80C342"></rect>
  <rect x="208" y="186" width="34" height="10" rx="5" transform="rotate(-20 208 186)" fill="#FFD84D"></rect>
  <rect x="152" y="94" width="32" height="10" rx="5" transform="rotate(85 152 94)" fill="#FFFFFF"></rect>
  <path d="M98 66L82 42M222 66L238 42" stroke="#1F1F1F" stroke-width="8" stroke-linecap="round"></path>
</svg>