<svg width="320" height="320" viewBox="0 0 320 320" fill="none" xmlns="http://www.w3.org/2000/svg">
  <rect x="20" y="20" width="280" height="280" rx="58" fill="#FFFFFF" stroke="#1F1F1F" stroke-width="10"></rect>
  <path d="M120 74H208L194 258H134L120 74Z" fill="#FFD84D" stroke="#1F1F1F" stroke-width="10" stroke-linejoin="round"></path>
  <path d="M112 74H216L206 44H122L112 74Z" fill="#6EC6FF" stroke="#1F1F1F" stroke-width="10" stroke-linejoin="round"></path>
  <path d="M137 119H191L186 208H142L137 119Z" fill="#FFFFFF" stroke="#1F1F1F" stroke-width="8" stroke-linejoin="round"></path>
  <circle cx="164" cy="159" r="14" fill="#80C342" stroke="#1F1F1F" stroke-width="6"></circle>
  <path d="M164 135V116M143 171L126 182M185 171L202 182" stroke="#80C342" stroke-width="10" stroke-linecap="round"></path>
  <path d="M92 126C70 146 70 179 92 202" stroke="#FF7AA8" stroke-width="12" stroke-linecap="round"></path>
  <path d="M230 126C252 146 252 179 230 202" stroke="#FF7AA8" stroke-width="12" stroke-linecap="round"></path>
  <path d="M145 92H183" stroke="#1F1F1F" stroke-width="7" stroke-linecap="round"></path>
</svg>